<svg width="32" height="32" viewBox="0 0 32 32" fill="none" xmlns="http://www.w3.org/2000/svg">
<path d="M20.3496 18.5762C20.3496 18.2295 20.2033 18.0388 19.9769 17.9023C19.7494 17.7723 19.4743 17.7561 19.0994 17.7561H17.4278V20.8111H18.1591V19.6985H18.9391C19.1991 19.6985 19.3616 19.7245 19.4569 19.8339C19.5869 19.9748 19.5696 20.2456 19.5696 20.4298V20.8089H20.2846V20.2077C20.2824 19.9368 20.2662 19.8003 20.1676 19.6487C20.0739 19.533 19.9502 19.4453 19.8101 19.3952L19.8318 19.3865C19.9904 19.3205 20.1252 19.2077 20.2181 19.0631C20.311 18.9185 20.3577 18.749 20.3518 18.5773L20.3496 18.5762ZM19.4071 19.0171L19.3768 19.0149C19.2793 19.0723 19.1655 19.0778 19.0193 19.0778H18.1418V18.3953H19.0344C19.1644 18.3953 19.2944 18.3953 19.3919 18.4494C19.4429 18.4747 19.4855 18.5142 19.5144 18.5633C19.5432 18.6124 19.5572 18.6688 19.5544 18.7257C19.5544 18.8557 19.5057 18.9586 19.4093 19.0182L19.4071 19.0171ZM24.9884 20.1568H23.5833V20.8068H24.996C25.7283 20.8068 26.1335 20.5056 26.1335 19.8491C26.1335 19.5458 26.062 19.3638 25.9309 19.2186C25.7652 19.0745 25.5063 19.0095 25.1401 18.9943L24.7328 18.9781C24.6201 18.9781 24.5378 18.9781 24.4565 18.9456C24.408 18.9312 24.3656 18.9009 24.3362 18.8597C24.3067 18.8185 24.2919 18.7687 24.294 18.7181C24.294 18.6206 24.3124 18.5383 24.3915 18.4906C24.4816 18.4414 24.5838 18.4189 24.6862 18.4256H26.0187V17.7734H24.5562C23.7935 17.7734 23.5183 18.2468 23.5183 18.6834C23.5183 19.6584 24.359 19.6097 25.0426 19.6259C25.1553 19.6259 25.2376 19.6422 25.2863 19.6909C25.3362 19.7234 25.3752 19.8058 25.3752 19.8859C25.3752 19.9693 25.3373 20.0484 25.2885 20.0809C25.2235 20.1383 25.126 20.1568 24.9884 20.1568ZM3 3V13.9373L3.8775 11.905H5.77333L6.01708 12.4077V11.905H8.23033L8.71783 13.01L9.19125 11.9126H16.2351C16.5547 11.9126 16.8418 11.9743 17.0541 12.1683V11.9191H18.99V12.1683C19.3226 11.9841 19.7332 11.9191 20.2033 11.9191H23.0265L23.2865 12.4239V11.9191H25.3643L25.6395 12.4228V11.918H27.6523V16.195H25.6092L25.2192 15.545V16.1788H22.6701L22.3927 15.4963H21.7612L21.4687 16.1614H20.1546C19.6346 16.1614 19.2446 16.0488 18.9846 15.9014V16.1614H15.8538V15.2038C15.8538 15.0738 15.8213 15.0738 15.74 15.0575H15.6263V16.1798H9.57258V15.6598L9.34508 16.1798H8.08083L7.862 15.6598V16.1636H5.42125L5.14392 15.4876H4.51667L4.23933 16.1636H3V29H28.7682V21.2997C28.4757 21.4459 28.1041 21.4947 27.7141 21.4947H25.8475V21.2184C25.62 21.3972 25.23 21.4947 24.8573 21.4947H18.9358V20.5197C18.9358 20.3897 18.9163 20.3897 18.8058 20.3897H18.7246V21.4968H16.7746V20.342C16.4518 20.4893 16.078 20.5045 15.7693 20.4893H15.5374V21.4806H13.1757L12.5908 20.8122L11.9733 21.4622H8.13717V17.2047H12.048L12.6092 17.8568L13.2093 17.2068H15.8223C16.1257 17.2068 16.624 17.2393 16.8428 17.4506V17.1906H19.2013C19.4201 17.1906 19.8989 17.2393 20.1795 17.4343V17.1743H23.7166V17.4343C23.8932 17.2567 24.2669 17.1743 24.5865 17.1743H26.634V17.4343C26.8442 17.2718 27.1367 17.1743 27.544 17.1743H28.818V3H3ZM25.919 19.2013L25.9309 19.2186C25.9418 19.2294 25.9558 19.2294 25.9645 19.2403L25.919 19.2013ZM28.8137 17.1722H28.8841V17.7734H28.8137V17.1722ZM28.8538 19.2825V19.2771C28.8213 19.25 28.8039 19.2251 28.7725 19.2013C28.61 19.0355 28.35 18.9683 27.9448 18.9575L27.5548 18.9445C27.4563 18.9485 27.3576 18.9376 27.2623 18.912C27.2138 18.8976 27.1714 18.8674 27.142 18.8262C27.1126 18.7849 27.0977 18.7351 27.0998 18.6845C27.0998 18.5863 27.1323 18.5126 27.1973 18.4635C27.2797 18.4148 27.3598 18.4093 27.4898 18.4093H28.8148V17.7723H27.4248C26.6773 17.7723 26.3848 18.2458 26.3848 18.6823C26.3848 19.6573 27.2298 19.6086 27.9123 19.6248C28.025 19.6248 28.1073 19.6411 28.155 19.6898C28.2048 19.7223 28.2373 19.8047 28.2373 19.8848C28.2373 19.9607 28.2005 20.0343 28.1398 20.0798C28.0911 20.1405 27.9925 20.1557 27.8473 20.1557H26.452V20.8111H27.8463C28.3013 20.8111 28.6414 20.6832 28.8212 20.4211H28.8538C28.9513 20.2759 29 20.0961 29 19.8545C29 19.5945 28.9513 19.432 28.8538 19.2847V19.2825ZM23.1468 18.392V17.7604H20.7255V20.8295H23.1468V20.1958H21.4459V19.5783H23.1067V18.9456H21.447V18.3931M17.6358 12.5193H18.3779V15.5667H17.6369L17.6358 12.5193ZM17.2198 13.3383L17.2123 13.3448C17.2123 13.0046 17.0714 12.8031 16.8439 12.6688C16.6088 12.5333 16.3348 12.5225 15.9664 12.5225H14.2992V15.5775H15.0293V14.4573H15.8093C16.0693 14.4573 16.2318 14.4898 16.3369 14.5873C16.4691 14.7347 16.4528 14.9968 16.4528 15.181V15.5645H17.1863V14.9654C17.1863 14.6946 17.1689 14.5592 17.0671 14.4064C16.972 14.2915 16.8489 14.2031 16.7096 14.1497C16.8959 14.0738 17.2209 13.8247 17.2209 13.3372L17.2198 13.3383ZM16.2936 13.7673H16.2773C16.1798 13.8258 16.0661 13.8279 15.9198 13.8279H15.025V13.153H15.9188C16.0488 13.153 16.1788 13.1573 16.2763 13.2072C16.3738 13.2505 16.4388 13.3458 16.4388 13.478C16.4388 13.6102 16.3878 13.7163 16.2936 13.7662V13.7673ZM20.2467 13.1541H20.9313V12.5041H20.2337C19.731 12.5041 19.3627 12.6178 19.1287 12.8616C18.8188 13.1866 18.7365 13.6091 18.7365 14.0641C18.7365 14.6188 18.8698 14.9665 19.1265 15.2276C19.3778 15.4854 19.8253 15.5634 20.1773 15.5634H21.0223L21.2986 14.8842H22.8044L23.0882 15.5634H24.5616V13.2776L25.9396 15.5634H26.9688L26.9709 15.5656V12.5182H26.2299V14.6447L24.9516 12.5214H23.8466V15.35L22.6192 12.4727H21.5315L20.5099 14.8777H20.1849C19.9932 14.8777 19.7928 14.8452 19.6779 14.7325C19.5425 14.57 19.4764 14.3425 19.4764 14.0153C19.4764 13.7066 19.5631 13.4628 19.6866 13.3328C19.8307 13.1866 19.9813 13.1541 20.2456 13.1541H20.2467ZM22.0537 13.0371L22.5563 14.2483V14.2504H21.5488L22.0537 13.0371ZM5.57833 14.8842L5.8535 15.5645H7.33333V13.1757L8.38633 15.5645H9.019L10.0731 13.179L10.0893 15.5645H10.8368V12.5203H9.62783L8.75358 14.583L7.80458 12.5193H6.62158V15.4042L5.38875 12.5193H4.30867L3.01083 15.5634H3.79083L4.0725 14.8853L5.57833 14.8842ZM4.833 13.0371L5.33133 14.2483L5.32808 14.2504H4.33683L4.83192 13.0371H4.833ZM15.844 17.755H13.5235L12.6027 18.7549L11.7089 17.7561H8.7915V20.8111H11.6667L12.5929 19.8014L13.4856 20.8089H14.8961V19.7906H15.8039C16.4539 19.7906 17.0714 19.6129 17.0714 18.7668L17.0649 18.7636C17.0649 17.9186 16.4171 17.7561 15.8429 17.7561L15.844 17.755ZM11.3092 20.1741L11.294 20.1719H9.52167V19.5685H11.1142V18.9467H9.52167V18.3942H11.3417L12.1357 19.2825L11.3081 20.1752L11.3092 20.1741ZM14.1713 20.5316L13.0555 19.289L14.1713 18.0887V20.5294V20.5316ZM15.8538 19.1688H14.895V18.392H15.8538C16.1138 18.392 16.3088 18.4982 16.3088 18.7647C16.3088 19.0279 16.1463 19.1677 15.8538 19.1677V19.1688ZM13.7976 13.1541V12.5193H11.3742V15.5667H13.7976V14.9383H12.1V14.3273H13.7543V13.7033H12.1V13.1541" fill="#18344C"/>
</svg>
