<svg width="11" height="11" viewBox="0 0 11 11" fill="none" xmlns="http://www.w3.org/2000/svg">
<path fill-rule="evenodd" clip-rule="evenodd" d="M3.57807 2.55682C3.58682 2.46088 3.63331 2.37234 3.70732 2.31066C3.78133 2.24899 3.8768 2.21923 3.97275 2.22792L7.74118 2.57069C7.78953 2.57392 7.83674 2.58678 7.88004 2.60853C7.92334 2.63027 7.96186 2.66045 7.99332 2.6973C8.02478 2.73415 8.04856 2.77692 8.06325 2.82309C8.07794 2.86927 8.08325 2.91791 8.07886 2.96617C8.07448 3.01442 8.06048 3.06131 8.03771 3.10408C8.01493 3.14685 7.98383 3.18463 7.94624 3.2152C7.90865 3.24577 7.86532 3.26851 7.81881 3.28209C7.77229 3.29567 7.72354 3.29981 7.6754 3.29426L3.90697 2.95149C3.81103 2.94274 3.72249 2.89625 3.66081 2.82224C3.59914 2.74823 3.56938 2.65276 3.57807 2.55682Z" fill="#F9FAFB"/>
<path fill-rule="evenodd" clip-rule="evenodd" d="M8.08397 7.06272C7.98802 7.07141 7.89255 7.04165 7.81854 6.97998C7.74453 6.9183 7.69804 6.82976 7.6893 6.73382L7.34652 2.96539C7.34098 2.91725 7.34512 2.86849 7.3587 2.82198C7.37228 2.77547 7.39502 2.73214 7.42559 2.69455C7.45616 2.65695 7.49394 2.62586 7.53671 2.60308C7.57947 2.5803 7.62637 2.56631 7.67462 2.56192C7.72288 2.55754 7.77152 2.56284 7.81769 2.57754C7.86387 2.59223 7.90664 2.616 7.94348 2.64747C7.98033 2.67893 8.01052 2.71745 8.03226 2.76075C8.054 2.80405 8.06687 2.85126 8.07009 2.89961L8.41287 6.66804C8.42156 6.76399 8.3918 6.85946 8.33013 6.93347C8.26845 7.00748 8.17991 7.05397 8.08397 7.06272Z" fill="#F9FAFB"/>
<path fill-rule="evenodd" clip-rule="evenodd" d="M7.70837 2.93249C7.77651 3.00063 7.8148 3.09306 7.8148 3.18944C7.8148 3.28581 7.77651 3.37824 7.70837 3.44639L2.82631 8.32844C2.75816 8.39659 2.66574 8.43488 2.56936 8.43488C2.47299 8.43488 2.38056 8.39659 2.31241 8.32844C2.24426 8.2603 2.20598 8.16787 2.20598 8.07149C2.20598 7.97512 2.24426 7.88269 2.31241 7.81454L7.19447 2.93249C7.26261 2.86434 7.35504 2.82605 7.45142 2.82605C7.54779 2.82605 7.64022 2.86434 7.70837 2.93249Z" fill="#F9FAFB"/>
</svg>
