<svg width="64" height="64" viewBox="0 0 64 64" fill="none" xmlns="http://www.w3.org/2000/svg">
<g clip-path="url(#clip0_140_1213)">
<path d="M40.5333 61.8667H38.4C38.4 62.2629 38.5103 62.6512 38.7186 62.9882C38.9269 63.3252 39.2249 63.5976 39.5793 63.7748C39.9336 63.952 40.3303 64.027 40.7249 63.9914C41.1195 63.9558 41.4964 63.811 41.8133 63.5733L40.5333 61.8667ZM49.0667 55.4667L50.3467 53.76C49.9774 53.4831 49.5283 53.3333 49.0667 53.3333C48.6051 53.3333 48.1559 53.4831 47.7867 53.76L49.0667 55.4667ZM57.6 61.8667L56.32 63.5733C56.637 63.811 57.0138 63.9558 57.4084 63.9914C57.803 64.027 58.1997 63.952 58.5541 63.7748C58.9084 63.5976 59.2064 63.3252 59.4147 62.9882C59.623 62.6512 59.7333 62.2629 59.7333 61.8667H57.6ZM49.0667 46.9333C46.2377 46.9333 43.5246 45.8095 41.5242 43.8091C39.5238 41.8088 38.4 39.0956 38.4 36.2667H34.1333C34.1333 40.2272 35.7067 44.0256 38.5072 46.8261C41.3078 49.6267 45.1061 51.2 49.0667 51.2V46.9333ZM59.7333 36.2667C59.7333 39.0956 58.6095 41.8088 56.6091 43.8091C54.6088 45.8095 51.8956 46.9333 49.0667 46.9333V51.2C53.0272 51.2 56.8256 49.6267 59.6261 46.8261C62.4267 44.0256 64 40.2272 64 36.2667H59.7333ZM49.0667 25.6C51.8956 25.6 54.6088 26.7238 56.6091 28.7242C58.6095 30.7246 59.7333 33.4377 59.7333 36.2667H64C64 32.3061 62.4267 28.5078 59.6261 25.7072C56.8256 22.9067 53.0272 21.3333 49.0667 21.3333V25.6ZM49.0667 21.3333C45.1061 21.3333 41.3078 22.9067 38.5072 25.7072C35.7067 28.5078 34.1333 32.3061 34.1333 36.2667H38.4C38.4 33.4377 39.5238 30.7246 41.5242 28.7242C43.5246 26.7238 46.2377 25.6 49.0667 25.6V21.3333ZM38.4 44.8V61.8667H42.6667V44.8H38.4ZM41.8133 63.5733L50.3467 57.1733L47.7867 53.76L39.2533 60.16L41.8133 63.5733ZM47.7867 57.1733L56.32 63.5733L58.88 60.16L50.3467 53.76L47.7867 57.1733ZM59.7333 61.8667V44.8H55.4667V61.8667H59.7333ZM64 21.3333V6.4H59.7333V21.3333H64ZM57.6 0H6.4V4.26667H57.6V0ZM0 6.4V57.6H4.26667V6.4H0ZM6.4 64H34.1333V59.7333H6.4V64ZM0 57.6C0 59.2974 0.674284 60.9253 1.87452 62.1255C3.07475 63.3257 4.70261 64 6.4 64V59.7333C5.83421 59.7333 5.29158 59.5086 4.89151 59.1085C4.49143 58.7084 4.26667 58.1658 4.26667 57.6H0ZM6.4 0C4.70261 0 3.07475 0.674284 1.87452 1.87452C0.674284 3.07475 0 4.70261 0 6.4H4.26667C4.26667 5.83421 4.49143 5.29158 4.89151 4.89151C5.29158 4.49143 5.83421 4.26667 6.4 4.26667V0ZM64 6.4C64 4.70261 63.3257 3.07475 62.1255 1.87452C60.9253 0.674284 59.2974 0 57.6 0V4.26667C58.1658 4.26667 58.7084 4.49143 59.1085 4.89151C59.5086 5.29158 59.7333 5.83421 59.7333 6.4H64ZM12.8 21.3333H34.1333V17.0667H12.8V21.3333ZM12.8 34.1333H25.6V29.8667H12.8V34.1333Z" fill="#18344C"/>
</g>
<defs>
<clipPath id="clip0_140_1213">
<rect width="64" height="64" fill="white"/>
</clipPath>
</defs>
</svg>
