<svg width="64" height="64" viewBox="0 0 64 64" fill="none" xmlns="http://www.w3.org/2000/svg">
<path d="M17.3333 53.3332C13.2888 53.3332 9.83374 51.9332 6.96796 49.1332C4.10218 46.3332 2.6684 42.9109 2.66663 38.8665C2.66663 35.3998 3.71107 32.3109 5.79996 29.5998C7.88885 26.8887 10.6222 25.1554 14 24.3998C15.1111 20.3109 17.3333 16.9998 20.6666 14.4665C24 11.9332 27.7777 10.6665 32 10.6665C37.2 10.6665 41.6115 12.4781 45.2346 16.1012C48.8577 19.7243 50.6684 24.1349 50.6666 29.3332C53.7333 29.6887 56.2782 31.0114 58.3013 33.3012C60.3244 35.5909 61.3351 38.2683 61.3333 41.3332C61.3333 44.6665 60.1671 47.5003 57.8346 49.8345C55.5022 52.1687 52.6684 53.3349 49.3333 53.3332H17.3333ZM17.3333 47.9998H49.3333C51.2 47.9998 52.7777 47.3554 54.0666 46.0665C55.3555 44.7776 56 43.1998 56 41.3332C56 39.4665 55.3555 37.8887 54.0666 36.5998C52.7777 35.311 51.2 34.6665 49.3333 34.6665H45.3333V29.3332C45.3333 25.6443 44.0328 22.4994 41.432 19.8985C38.8311 17.2976 35.6871 15.9981 32 15.9998C28.3128 16.0016 25.1688 17.3021 22.568 19.9012C19.9671 22.5003 18.6666 25.6443 18.6666 29.3332H17.3333C14.7555 29.3332 12.5555 30.2443 10.7333 32.0665C8.91107 33.8887 7.99996 36.0887 7.99996 38.6665C7.99996 41.2443 8.91107 43.4443 10.7333 45.2665C12.5555 47.0887 14.7555 47.9998 17.3333 47.9998Z" fill="#18344C"/>
</svg>
