<svg width="64" height="64" viewBox="0 0 64 64" fill="none" xmlns="http://www.w3.org/2000/svg">
<path d="M32.0001 20.0001C29.6267 20.0001 27.3067 20.7039 25.3333 22.0225C23.3599 23.3411 21.8218 25.2152 20.9136 27.4079C20.0053 29.6006 19.7677 32.0134 20.2307 34.3412C20.6937 36.669 21.8366 38.8072 23.5148 40.4854C25.1931 42.1636 27.3313 43.3065 29.659 43.7695C31.9868 44.2326 34.3996 43.9949 36.5923 43.0867C38.785 42.1784 40.6592 40.6403 41.9777 38.667C43.2963 36.6936 44.0001 34.3735 44.0001 32.0001C43.9968 28.8185 42.7315 25.7682 40.4817 23.5185C38.232 21.2688 35.1817 20.0034 32.0001 20.0001ZM32.0001 40.0001C30.4179 40.0001 28.8711 39.5309 27.5556 38.6519C26.24 37.7728 25.2146 36.5234 24.6091 35.0616C24.0036 33.5998 23.8451 31.9912 24.1538 30.4394C24.4625 28.8875 25.2244 27.4621 26.3433 26.3433C27.4621 25.2244 28.8875 24.4625 30.4394 24.1538C31.9912 23.8451 33.5998 24.0036 35.0616 24.6091C36.5234 25.2146 37.7728 26.24 38.6519 27.5556C39.5309 28.8711 40.0001 30.4179 40.0001 32.0001C40.0001 34.1218 39.1573 36.1567 37.657 37.657C36.1567 39.1573 34.1218 40.0001 32.0001 40.0001ZM54.0001 32.5401C54.0101 32.1801 54.0101 31.8201 54.0001 31.4601L57.7301 26.8001C57.9257 26.5554 58.0611 26.2683 58.1253 25.9617C58.1896 25.6551 58.181 25.3377 58.1001 25.0351C57.4887 22.7366 56.574 20.5297 55.3801 18.4726C55.2238 18.2034 55.0068 17.9744 54.7464 17.8038C54.486 17.6333 54.1894 17.5258 53.8801 17.4901L47.9501 16.8301C47.7034 16.5701 47.4534 16.3201 47.2001 16.0801L46.5001 10.1351C46.4641 9.82564 46.3563 9.52887 46.1853 9.26844C46.0143 9.00801 45.7848 8.79114 45.5151 8.63511C43.4572 7.44345 41.2505 6.52967 38.9526 5.91761C38.6498 5.83711 38.3323 5.82887 38.0257 5.89357C37.7192 5.95828 37.4321 6.09411 37.1876 6.29011L32.5401 10.0001H31.4601L26.8001 6.27761C26.5554 6.08204 26.2683 5.94666 25.9617 5.88239C25.6551 5.81813 25.3377 5.82676 25.0351 5.90761C22.737 6.52018 20.5303 7.43482 18.4726 8.62761C18.2034 8.78393 17.9744 9.00093 17.8038 9.26134C17.6333 9.52174 17.5258 9.81837 17.4901 10.1276L16.8301 16.0676C16.5701 16.3159 16.3201 16.5659 16.0801 16.8176L10.1351 17.5001C9.82564 17.5361 9.52887 17.6439 9.26844 17.8149C9.00801 17.986 8.79114 18.2154 8.63511 18.4851C7.44345 20.543 6.52967 22.7497 5.91761 25.0476C5.83711 25.3504 5.82887 25.6679 5.89357 25.9745C5.95828 26.2811 6.09411 26.5682 6.29011 26.8126L10.0001 31.4601V32.5401L6.27761 37.2001C6.08204 37.4448 5.94666 37.732 5.88239 38.0385C5.81813 38.3451 5.82676 38.6625 5.90761 38.9651C6.51906 41.2636 7.43376 43.4705 8.62761 45.5276C8.78393 45.7968 9.00093 46.0258 9.26134 46.1964C9.52174 46.367 9.81837 46.4744 10.1276 46.5101L16.0576 47.1701C16.3059 47.4301 16.5559 47.6801 16.8076 47.9201L17.5001 53.8651C17.5361 54.1746 17.6439 54.4714 17.8149 54.7318C17.986 54.9922 18.2154 55.2091 18.4851 55.3651C20.543 56.5568 22.7497 57.4706 25.0476 58.0826C25.3504 58.1631 25.6679 58.1714 25.9745 58.1067C26.2811 58.042 26.5682 57.9061 26.8126 57.7101L31.4601 54.0001C31.8201 54.0101 32.1801 54.0101 32.5401 54.0001L37.2001 57.7301C37.4448 57.9257 37.732 58.0611 38.0385 58.1253C38.3451 58.1896 38.6625 58.181 38.9651 58.1001C41.2636 57.4887 43.4705 56.574 45.5276 55.3801C45.7968 55.2238 46.0258 55.0068 46.1964 54.7464C46.367 54.486 46.4744 54.1894 46.5101 53.8801L47.1701 47.9501C47.4301 47.7034 47.6801 47.4534 47.9201 47.2001L53.8651 46.5001C54.1746 46.4641 54.4714 46.3563 54.7318 46.1853C54.9922 46.0143 55.2091 45.7848 55.3651 45.5151C56.5568 43.4572 57.4706 41.2505 58.0826 38.9526C58.1631 38.6498 58.1714 38.3323 58.1067 38.0257C58.042 37.7192 57.9061 37.4321 57.7101 37.1876L54.0001 32.5401ZM49.9751 30.9151C50.0176 31.6378 50.0176 32.3624 49.9751 33.0851C49.9453 33.5799 50.1004 34.0681 50.4101 34.4551L53.9576 38.8876C53.5505 40.1813 53.0293 41.4362 52.4001 42.6376L46.7501 43.2776C46.2581 43.3322 45.8038 43.5674 45.4751 43.9376C44.9939 44.4789 44.4814 44.9914 43.9401 45.4726C43.5699 45.8013 43.3347 46.2556 43.2801 46.7476L42.6526 52.3926C41.4514 53.0222 40.1964 53.5434 38.9026 53.9501L34.4676 50.4026C34.1127 50.1191 33.6719 49.9648 33.2176 49.9651H33.0976C32.3749 50.0076 31.6503 50.0076 30.9276 49.9651C30.4328 49.9353 29.9446 50.0904 29.5576 50.4001L25.1126 53.9501C23.819 53.543 22.564 53.0218 21.3626 52.3926L20.7226 46.7501C20.668 46.2581 20.4328 45.8038 20.0626 45.4751C19.5213 44.9939 19.0088 44.4814 18.5276 43.9401C18.1989 43.5699 17.7447 43.3347 17.2526 43.2801L11.6076 42.6501C10.9781 41.4489 10.4568 40.1939 10.0501 38.9001L13.5976 34.4651C13.9074 34.0781 14.0624 33.5899 14.0326 33.0951C13.9902 32.3724 13.9902 31.6478 14.0326 30.9251C14.0624 30.4303 13.9074 29.9421 13.5976 29.5551L10.0501 25.1126C10.4572 23.819 10.9784 22.564 11.6076 21.3626L17.2501 20.7226C17.7422 20.668 18.1964 20.4328 18.5251 20.0626C19.0063 19.5213 19.5188 19.0088 20.0601 18.5276C20.4318 18.1987 20.6679 17.7434 20.7226 17.2501L21.3501 11.6076C22.5514 10.9781 23.8063 10.4568 25.1001 10.0501L29.5351 13.5976C29.9221 13.9074 30.4103 14.0624 30.9051 14.0326C31.6278 13.9902 32.3524 13.9902 33.0751 14.0326C33.5699 14.0624 34.0581 13.9074 34.4451 13.5976L38.8876 10.0501C40.1813 10.4572 41.4362 10.9784 42.6376 11.6076L43.2776 17.2501C43.3322 17.7422 43.5674 18.1964 43.9376 18.5251C44.4789 19.0063 44.9914 19.5188 45.4726 20.0601C45.8013 20.4303 46.2556 20.6655 46.7476 20.7201L52.3926 21.3476C53.0222 22.5489 53.5434 23.8038 53.9501 25.0976L50.4026 29.5326C50.0899 29.9229 49.9347 30.4161 49.9676 30.9151H49.9751Z" fill="#18344C"/>
</svg>
