<svg width="64" height="64" viewBox="0 0 64 64" fill="none" xmlns="http://www.w3.org/2000/svg">
<path d="M17.6426 56C16.4479 56 15.431 55.5804 14.5919 54.7413C13.7528 53.9022 13.3333 52.8862 13.3333 51.6933V28.3067C13.3333 27.1156 13.7528 26.0996 14.5919 25.2587C15.431 24.4196 16.4479 24 17.6426 24H21.3333V18.6667C21.3333 15.696 22.3688 13.176 24.4399 11.1067C26.5093 9.03556 29.0293 8 31.9999 8C34.9706 8 37.4915 9.03556 39.5626 11.1067C41.6337 13.1778 42.6684 15.6978 42.6666 18.6667V24H46.3599C47.551 24 48.567 24.4196 49.4079 25.2587C50.247 26.0978 50.6666 27.1147 50.6666 28.3093V51.6933C50.6666 52.8844 50.247 53.9004 49.4079 54.7413C48.5688 55.5804 47.5528 56 46.3599 56H17.6426ZM17.6426 53.3333H46.3599C46.8381 53.3333 47.231 53.1796 47.5386 52.872C47.8461 52.5644 47.9999 52.1716 47.9999 51.6933V28.3067C47.9999 27.8284 47.8461 27.4356 47.5386 27.128C47.231 26.8204 46.8381 26.6667 46.3599 26.6667H17.6399C17.1617 26.6667 16.7688 26.8204 16.4613 27.128C16.1537 27.4356 15.9999 27.8293 15.9999 28.3093V51.6933C15.9999 52.1716 16.1537 52.5644 16.4613 52.872C16.7688 53.1796 17.1626 53.3333 17.6426 53.3333ZM31.9999 44C33.1253 44 34.0728 43.6142 34.8426 42.8427C35.6141 42.0729 35.9999 41.1253 35.9999 40C35.9999 38.8747 35.6141 37.9271 34.8426 37.1573C34.071 36.3876 33.1235 36.0018 31.9999 36C30.8764 35.9982 29.9288 36.384 29.1573 37.1573C28.3857 37.9271 27.9999 38.8747 27.9999 40C27.9999 41.1253 28.3857 42.0729 29.1573 42.8427C29.927 43.6142 30.8746 44 31.9999 44ZM23.9999 24H39.9999V18.6667C39.9999 16.4444 39.2221 14.5556 37.6666 13C36.111 11.4444 34.2221 10.6667 31.9999 10.6667C29.7777 10.6667 27.8888 11.4444 26.3333 13C24.7777 14.5556 23.9999 16.4444 23.9999 18.6667V24Z" fill="#18344C"/>
</svg>
