<svg width="32" height="32" viewBox="0 0 32 32" fill="none" xmlns="http://www.w3.org/2000/svg">
<path d="M26.6666 10.6668L16 17.3335L5.33329 10.6668V8.00016L16 14.6668L26.6666 8.00016M26.6666 5.3335H5.33329C3.85329 5.3335 2.66663 6.52016 2.66663 8.00016V24.0002C2.66663 24.7074 2.94758 25.3857 3.44767 25.8858C3.94777 26.3859 4.62605 26.6668 5.33329 26.6668H26.6666C27.3739 26.6668 28.0521 26.3859 28.5522 25.8858C29.0523 25.3857 29.3333 24.7074 29.3333 24.0002V8.00016C29.3333 7.29292 29.0523 6.61464 28.5522 6.11454C28.0521 5.61445 27.3739 5.3335 26.6666 5.3335Z" fill="#18344C"/>
</svg>
