<svg width="32" height="32" viewBox="0 0 32 32" fill="none" xmlns="http://www.w3.org/2000/svg">
<g clip-path="url(#clip0_149_261)">
<path d="M26.828 24.5718C26.828 24.9498 26.573 25.2218 26.206 25.2218C25.828 25.2218 25.584 24.9328 25.584 24.5718C25.584 24.2108 25.828 23.9218 26.206 23.9218C26.573 23.9218 26.828 24.2108 26.828 24.5718ZM9.56102 23.9218C9.16602 23.9218 8.93902 24.2108 8.93902 24.5718C8.93902 24.9328 9.16702 25.2218 9.56102 25.2218C9.92202 25.2218 10.166 24.9498 10.166 24.5718C10.16 24.2108 9.92202 23.9218 9.56102 23.9218ZM16.089 23.9058C15.789 23.9058 15.605 24.0998 15.561 24.3888H16.622C16.572 24.0718 16.378 23.9058 16.089 23.9058ZM22.078 23.9218C21.7 23.9218 21.473 24.2108 21.473 24.5718C21.473 24.9328 21.701 25.2218 22.078 25.2218C22.456 25.2218 22.7 24.9498 22.7 24.5718C22.7 24.2108 22.455 23.9218 22.078 23.9218ZM27.961 25.3718C27.961 25.3888 27.978 25.3998 27.978 25.4328C27.978 25.4498 27.961 25.4608 27.961 25.4938C27.944 25.5108 27.944 25.5218 27.933 25.5378C27.916 25.5548 27.905 25.5658 27.872 25.5658C27.855 25.5828 27.844 25.5828 27.811 25.5828C27.794 25.5828 27.783 25.5828 27.75 25.5658C27.733 25.5658 27.722 25.5488 27.706 25.5378C27.689 25.5208 27.678 25.5098 27.678 25.4938C27.661 25.4658 27.661 25.4498 27.661 25.4328C27.661 25.4048 27.661 25.3888 27.678 25.3718C27.678 25.3438 27.695 25.3278 27.706 25.3108C27.723 25.2938 27.734 25.2938 27.75 25.2828C27.778 25.2658 27.794 25.2658 27.811 25.2658C27.839 25.2658 27.855 25.2658 27.872 25.2828C27.9 25.2988 27.916 25.2988 27.933 25.3108C27.95 25.3228 27.944 25.3438 27.961 25.3718ZM27.839 25.4498C27.867 25.4498 27.867 25.4328 27.883 25.4328C27.9 25.4158 27.9 25.4048 27.9 25.3888C27.9 25.3728 27.9 25.3608 27.883 25.3448C27.867 25.3448 27.855 25.3278 27.822 25.3278H27.733V25.5218H27.777V25.4438H27.794L27.855 25.5218H27.899L27.839 25.4498ZM32 6.27784V25.8338C31.9998 26.5411 31.7187 27.2193 31.2186 27.7194C30.7185 28.2195 30.0403 28.5006 29.333 28.5008H2.66602C1.95877 28.5006 1.28056 28.2195 0.780462 27.7194C0.28036 27.2193 -0.000711526 26.5411 -0.000976562 25.8338V6.27784C-0.000711526 5.57059 0.28036 4.89238 0.780462 4.39228C1.28056 3.89218 1.95877 3.6111 2.66602 3.61084H29.333C30.0403 3.6111 30.7185 3.89218 31.2186 4.39228C31.7187 4.89238 31.9998 5.57059 32 6.27784ZM3.55602 14.0328C3.55602 18.2828 7.00602 21.7268 11.25 21.7268C12.7615 21.7225 14.2387 21.2766 15.5 20.4438C11.45 17.1498 11.478 10.9328 15.5 7.63784C14.2399 6.80247 12.7619 6.35628 11.25 6.35484C7.00602 6.34984 3.55602 9.79884 3.55602 14.0328ZM16 20.0778C19.917 17.0218 19.9 11.0668 16 7.99484C12.1 11.0668 12.083 17.0278 16 20.0778ZM8.09402 24.3168C8.09402 23.8338 7.77702 23.5168 7.27702 23.4998C7.02102 23.4998 6.74902 23.5778 6.56602 23.8608C6.43302 23.6328 6.20502 23.4998 5.88802 23.4998C5.77283 23.4981 5.65896 23.5245 5.5563 23.5768C5.45365 23.6291 5.36533 23.7056 5.29902 23.7998V23.5558H4.84402V25.5948H5.29902C5.29902 24.5448 5.16002 23.9168 5.79902 23.9168C6.36602 23.9168 6.25502 24.4838 6.25502 25.5948H6.69402C6.69402 24.5778 6.55502 23.9168 7.19402 23.9168C7.76102 23.9168 7.64902 24.4728 7.64902 25.5948H8.10502V24.3168H8.09402ZM10.589 23.5558H10.15V23.7998C10.0723 23.7029 9.97315 23.6254 9.86035 23.5733C9.74755 23.5212 9.6242 23.4961 9.50002 23.4998C8.92802 23.4998 8.48902 23.9558 8.48902 24.5718C8.48902 25.1938 8.92802 25.6438 9.50002 25.6438C9.78902 25.6438 10 25.5378 10.15 25.3438V25.5998H10.589V23.5558ZM12.839 24.9778C12.839 24.1448 11.567 24.5218 11.567 24.1328C11.567 23.8158 12.228 23.8668 12.595 24.0718L12.778 23.7108C12.256 23.3718 11.1 23.3778 11.1 24.1668C11.1 24.9608 12.372 24.6278 12.372 24.9998C12.372 25.3498 11.622 25.3218 11.222 25.0438L11.028 25.3938C11.65 25.8158 12.839 25.7268 12.839 24.9768V24.9778ZM14.806 25.4938L14.684 25.1158C14.473 25.2318 14.006 25.3598 14.006 24.8878V23.9658H14.734V23.5548H14.006V22.9328H13.55V23.5548H13.128V23.9608H13.55V24.8888C13.55 25.8668 14.511 25.6888 14.806 25.4938ZM15.544 24.7498H17.072C17.072 23.8498 16.661 23.4938 16.105 23.4938C15.516 23.4938 15.094 23.9328 15.094 24.5658C15.094 25.7048 16.35 25.8938 16.972 25.3548L16.761 25.0218C16.328 25.3778 15.672 25.3438 15.544 24.7498ZM18.828 23.5558C18.573 23.4448 18.184 23.4558 17.984 23.7998V23.5558H17.528V25.5948H17.984V24.4448C17.984 23.7998 18.512 23.8838 18.695 23.9778L18.828 23.5558ZM19.417 24.5718C19.417 23.9378 20.062 23.7328 20.567 24.1048L20.778 23.7438C20.133 23.2388 18.961 23.5158 18.961 24.5768C18.961 25.6768 20.205 25.8988 20.778 25.4098L20.567 25.0488C20.056 25.4098 19.417 25.1938 19.417 24.5708V24.5718ZM23.122 23.5558H22.666V23.7998C22.205 23.1888 21.005 23.5338 21.005 24.5718C21.005 25.6388 22.249 25.9438 22.666 25.3438V25.5998H23.122V23.5558ZM24.994 23.5558C24.861 23.4888 24.383 23.3948 24.15 23.7998V23.5558H23.711V25.5948H24.15V24.4448C24.15 23.8338 24.65 23.8728 24.861 23.9778L24.994 23.5558ZM27.233 22.7278H26.794V23.7998C26.338 23.1948 25.133 23.5168 25.133 24.5718C25.133 25.6498 26.383 25.9378 26.794 25.3438V25.5998H27.233V22.7278ZM27.656 18.5558V18.8118H27.7V18.5558H27.805V18.5118H27.549V18.5558H27.656ZM28.022 25.4328C28.022 25.4048 28.022 25.3718 28.006 25.3438C27.989 25.3268 27.978 25.2998 27.962 25.2828C27.946 25.2658 27.918 25.2548 27.901 25.2388C27.873 25.2388 27.84 25.2218 27.812 25.2218C27.795 25.2218 27.768 25.2388 27.734 25.2388C27.7121 25.2512 27.6916 25.2659 27.673 25.2828C27.645 25.2988 27.629 25.3268 27.629 25.3438C27.612 25.3718 27.612 25.4048 27.612 25.4328C27.612 25.4498 27.612 25.4768 27.629 25.5108C27.629 25.5278 27.646 25.5548 27.673 25.5718C27.6899 25.5908 27.7107 25.6058 27.734 25.6158C27.762 25.6318 27.795 25.6318 27.812 25.6318C27.84 25.6318 27.873 25.6318 27.901 25.6158C27.918 25.5988 27.945 25.5878 27.962 25.5718C27.979 25.5558 27.99 25.5278 28.006 25.5108C28.022 25.4778 28.022 25.4498 28.022 25.4328ZM28.2 18.5058H28.122L28.033 18.6998L27.944 18.5058H27.866V18.8058H27.91V18.5778L27.999 18.7718H28.06L28.138 18.5778V18.8058H28.199L28.2 18.5058ZM28.444 14.0328C28.444 9.79884 24.994 6.34984 20.75 6.34984C19.2385 6.35363 17.7611 6.79962 16.5 7.63284C20.506 10.9278 20.567 17.1608 16.5 20.4388C17.7608 21.2728 19.2384 21.7188 20.75 21.7218C24.994 21.7278 28.444 18.2828 28.444 14.0328Z" fill="#18344C"/>
</g>
<defs>
<clipPath id="clip0_149_261">
<rect width="32" height="32" fill="white"/>
</clipPath>
</defs>
</svg>
