<svg width="32" height="32" viewBox="0 0 32 32" fill="none" xmlns="http://www.w3.org/2000/svg">
<path d="M9.33329 30.6668C8.59996 30.6668 7.9724 30.4059 7.45063 29.8842C6.92885 29.3624 6.66751 28.7344 6.66663 28.0002V4.00016C6.66663 3.26683 6.92796 2.63927 7.45063 2.1175C7.97329 1.59572 8.60085 1.33438 9.33329 1.3335H22.6666C23.4 1.3335 24.028 1.59483 24.5506 2.1175C25.0733 2.64016 25.3342 3.26772 25.3333 4.00016V28.0002C25.3333 28.7335 25.0724 29.3615 24.5506 29.8842C24.0288 30.4068 23.4008 30.6677 22.6666 30.6668H9.33329ZM16 27.3335C16.3777 27.3335 16.6946 27.2055 16.9506 26.9495C17.2066 26.6935 17.3342 26.3771 17.3333 26.0002C17.3324 25.6233 17.2044 25.3068 16.9493 25.0508C16.6942 24.7948 16.3777 24.6668 16 24.6668C15.6222 24.6668 15.3057 24.7948 15.0506 25.0508C14.7955 25.3068 14.6675 25.6233 14.6666 26.0002C14.6657 26.3771 14.7937 26.6939 15.0506 26.9508C15.3075 27.2077 15.624 27.3353 16 27.3335ZM9.33329 21.3335H22.6666V8.00016H9.33329V21.3335Z" fill="#18344C"/>
</svg>
