<svg width="32" height="32" viewBox="0 0 32 32" fill="none" xmlns="http://www.w3.org/2000/svg">
<path d="M2.31262 17.8217C2.31262 23.4731 5.98234 26.7948 12.1698 26.7948H14.7412C17.0983 26.7948 18.5315 25.656 18.5315 24.3834C18.5315 24.0891 18.3841 23.9417 18.1029 23.9417H16.9646C16.4286 23.9417 16.1606 23.6605 16.1606 23.3394C16.1606 22.9908 16.4286 22.7234 16.9646 22.7234H17.7143C19.0938 22.7234 20.0046 21.8262 20.0046 20.6337C20.0046 20.0851 19.7766 19.844 19.3212 19.844H17.7681C17.2321 19.844 16.9641 19.5754 16.9641 19.2542C16.9641 18.9057 17.2326 18.6251 17.7681 18.6251H19.2012C20.7543 18.6251 21.4909 17.7142 21.4909 16.5622C21.4909 16.04 21.2498 15.7725 20.8081 15.7725H17.7681C17.2321 15.7725 16.9641 15.4908 16.9641 15.1697C16.9641 14.8211 17.2326 14.5537 17.7681 14.5537H28.0538C29.0446 14.5537 29.6881 13.8971 29.6881 13.0668C29.6881 12.1697 29.0446 11.54 28.0538 11.54H12.7858C12.4372 11.54 12.2503 11.3257 12.2503 11.1114C12.2503 10.884 12.3972 10.7228 12.7321 10.5628L17.9549 8.27252C18.8526 7.87024 19.1206 7.05367 18.8395 6.34395C18.5715 5.66052 17.7543 5.2051 16.7766 5.58052L10.0001 8.13824C4.33491 10.2685 2.31262 13.5091 2.31262 17.8217Z" fill="#18344C"/>
</svg>
