<svg xmlns="http://www.w3.org/2000/svg" xmlns:xlink="http://www.w3.org/1999/xlink" width="1603" zoomAndPan="magnify" viewBox="0 0 1202.25 581.249982" height="775" preserveAspectRatio="xMidYMid meet" version="1.0"><defs><g/><clipPath id="0e2025b557"><path d="M 99.875 56.488281 L 927 56.488281 L 927 374 L 99.875 374 Z M 99.875 56.488281 " clip-rule="nonzero"/></clipPath><clipPath id="f6fb6b4e0e"><path d="M 235 502 L 661 502 L 661 522.386719 L 235 522.386719 Z M 235 502 " clip-rule="nonzero"/></clipPath><clipPath id="1245ebf9cc"><path d="M 930 384 L 1063.652344 384 L 1063.652344 492 L 930 492 Z M 930 384 " clip-rule="nonzero"/></clipPath></defs><g clip-path="url(#0e2025b557)"><path fill="#ee8d1c" d="M 692.480469 56.488281 L 705.625 56.511719 L 718.765625 56.535156 L 726.882812 57.371094 L 735.007812 58.207031 L 746.441406 60.132812 L 757.882812 62.058594 L 766.613281 64.296875 L 775.335938 66.535156 L 783.003906 68.984375 L 790.667969 71.4375 L 796.464844 73.738281 L 802.261719 76.035156 L 805.742188 77.601562 L 809.222656 79.164062 L 816.035156 82.585938 L 822.851562 86.007812 L 834.734375 93.15625 L 840.921875 97.433594 L 847.105469 101.710938 L 852.902344 106.414062 L 858.703125 111.117188 L 865.199219 117.3125 L 871.691406 123.511719 L 879.117188 132.40625 L 886.535156 141.300781 L 892.1875 149.824219 L 897.832031 158.351562 L 910.878906 184.671875 L 915.070312 197.445312 L 919.261719 210.222656 L 921.328125 220.285156 L 923.398438 230.351562 L 924.484375 239.253906 L 925.566406 248.15625 L 926.066406 262.09375 L 926.574219 276.027344 L 925.640625 287.640625 L 924.714844 299.253906 L 923.246094 308.335938 L 921.78125 317.421875 L 920.546875 323.433594 L 919.316406 329.445312 L 916.285156 340.671875 L 913.25 351.898438 L 909.785156 362.28125 L 906.324219 372.664062 L 904.316406 373.9375 L 895.039062 373.890625 L 885.761719 373.839844 L 884.871094 373.472656 L 883.980469 373.109375 L 886.703125 365.214844 L 889.421875 357.316406 L 892.402344 347.449219 L 895.378906 337.582031 L 897.285156 329.640625 L 899.191406 321.703125 L 900.78125 313.574219 L 902.359375 305.445312 L 903.527344 296.320312 L 904.699219 287.195312 L 905.1875 276.191406 L 905.679688 265.1875 L 904.746094 253.960938 L 903.820312 242.738281 L 902.320312 233.832031 L 900.816406 224.929688 L 899.210938 218.351562 L 897.597656 211.769531 L 895.285156 204.5625 L 892.96875 197.359375 L 886.078125 181.578125 L 879.007812 168.414062 L 868.1875 152.234375 L 861.796875 144.800781 L 855.402344 137.371094 L 848.550781 130.933594 L 841.695312 124.496094 L 833.84375 118.582031 L 825.992188 112.671875 L 820.308594 109.222656 L 814.632812 105.777344 L 806.128906 101.421875 L 797.625 97.070312 L 790.277344 94.140625 L 782.9375 91.214844 L 778.296875 89.714844 L 773.660156 88.214844 L 765.152344 85.957031 L 756.652344 83.695312 L 750.847656 82.582031 L 745.054688 81.46875 L 739.257812 80.644531 L 733.457031 79.816406 L 726.113281 78.988281 L 718.765625 78.160156 L 699.828125 78.167969 L 680.882812 78.179688 L 660.007812 80.445312 L 656.535156 80.917969 L 653.050781 81.386719 L 648.800781 82.121094 L 644.546875 82.859375 L 632.953125 85.195312 L 620.578125 88.085938 L 612.871094 90.167969 L 605.15625 92.253906 L 594.703125 95.746094 L 584.246094 99.238281 L 579.21875 101.171875 L 574.195312 103.105469 L 572.648438 103.804688 L 571.101562 104.5 L 562.597656 108.089844 L 554.09375 111.683594 L 545.203125 116.117188 L 536.3125 120.554688 L 530.125 123.871094 L 523.941406 127.1875 L 517.757812 130.738281 L 511.570312 134.285156 L 501.519531 140.8125 L 491.472656 147.335938 L 476.605469 157.882812 L 466.253906 166.1875 L 455.90625 174.488281 L 438.898438 189.949219 L 429.371094 199.699219 L 419.847656 209.445312 L 411.972656 218.351562 L 404.101562 227.253906 L 396.710938 236.542969 L 389.316406 245.832031 L 385.777344 250.867188 L 382.238281 255.898438 L 379.832031 261.703125 L 315.433594 261.691406 L 251.03125 261.679688 L 250.1875 261.113281 L 249.34375 260.542969 L 240.550781 249.316406 L 231.761719 238.09375 L 223.316406 227.253906 L 214.867188 216.414062 L 213.035156 214.21875 L 211.203125 212.027344 L 211.640625 211.316406 L 212.078125 210.609375 L 388.726562 210.609375 L 409.90625 188.171875 L 409.90625 186.609375 L 196.796875 186.609375 L 195.222656 184.867188 L 193.644531 183.125 L 169.722656 151.382812 L 163.023438 142.578125 L 156.324219 133.777344 L 156.324219 132.414062 L 476.316406 132.414062 L 487.371094 125.203125 L 498.429688 117.988281 L 502.097656 115.71875 L 505.769531 113.449219 L 505.769531 112.867188 L 505.773438 112.285156 L 140.789062 112.285156 L 139.085938 110.503906 L 137.382812 108.726562 L 135.835938 106.699219 L 134.289062 104.675781 L 125.398438 92.925781 L 116.507812 81.171875 L 99.875 59.289062 L 100.136719 58.496094 L 100.402344 57.707031 Z M 692.480469 56.488281 " fill-opacity="1" fill-rule="evenodd"/></g><path fill="#ee8d1c" d="M 687.742188 94.363281 L 705.480469 94.765625 L 723.214844 95.167969 L 731.683594 96.398438 L 740.148438 97.625 L 747.488281 99.164062 L 754.835938 100.699219 L 761.769531 102.703125 L 768.710938 104.703125 L 770.851562 105.914062 L 766.699219 108.972656 L 762.542969 112.03125 L 753.066406 118.585938 L 743.585938 125.140625 L 733.390625 132.128906 L 723.191406 139.117188 L 710.878906 147.78125 L 696.996094 157.371094 L 683.113281 166.964844 L 674.636719 172.917969 L 666.152344 178.875 L 664.609375 179.308594 L 663.070312 179.738281 L 657.910156 177.996094 L 652.757812 176.25 L 646.726562 174.851562 L 640.703125 173.449219 L 639.34375 172.746094 L 637.980469 172.046875 L 640.191406 168.78125 L 642.40625 165.515625 L 649.355469 154.257812 L 656.316406 143 L 667.320312 125.53125 L 678.328125 108.058594 L 685.976562 95.636719 Z M 687.742188 94.363281 " fill-opacity="1" fill-rule="evenodd"/><path fill="#ee8d1c" d="M 670.445312 96.167969 L 670.445312 97.722656 L 661.445312 111.847656 L 652.4375 125.976562 L 648.027344 132.898438 L 643.613281 139.820312 L 638.636719 147.695312 L 633.664062 155.570312 L 628.996094 162.691406 L 624.335938 169.8125 L 603.828125 170.371094 L 583.324219 170.929688 L 575.371094 172.328125 L 567.414062 173.726562 L 566.621094 173.242188 L 565.832031 172.757812 L 566.945312 169.363281 L 568.054688 165.96875 L 574.425781 142.511719 L 580.800781 119.054688 L 581.753906 118.042969 L 582.703125 117.03125 L 593.078125 113.519531 L 603.457031 110.007812 L 608.488281 108.511719 L 613.527344 107.015625 L 622.429688 104.746094 L 631.335938 102.472656 L 640.632812 100.664062 L 649.921875 98.851562 L 655.34375 98.007812 L 660.765625 97.160156 Z M 670.445312 96.167969 " fill-opacity="1" fill-rule="evenodd"/><path fill="#ee8d1c" d="M 793.472656 116.007812 L 795.160156 116.335938 L 796.851562 116.660156 L 806.949219 122.722656 L 817.050781 128.785156 L 823.425781 133.867188 L 829.796875 138.945312 L 838.390625 147.511719 L 846.980469 156.078125 L 851.304688 161.785156 L 855.625 167.488281 L 855.625 168.714844 L 848.304688 173.308594 L 842.90625 176.269531 L 837.503906 179.230469 L 834.8125 180.785156 L 832.113281 182.335938 L 824.789062 186.332031 L 817.464844 190.324219 L 813.605469 192.496094 L 809.753906 194.667969 L 798.574219 200.875 L 787.398438 207.082031 L 782.382812 209.980469 L 777.375 212.878906 L 768.890625 217.527344 L 764.269531 220.074219 L 759.640625 222.621094 L 753.863281 225.929688 L 748.078125 229.238281 L 744.609375 231.253906 L 741.140625 233.273438 L 735.976562 235.96875 L 730.816406 238.660156 L 729.359375 236.539062 L 727.898438 234.421875 L 725.304688 229.765625 L 722.699219 225.113281 L 722.066406 224.335938 L 721.4375 223.5625 L 717.148438 217.742188 L 712.863281 211.925781 L 710.042969 208.953125 L 707.21875 205.980469 L 700.855469 200.960938 L 694.496094 195.941406 L 694.496094 194.707031 L 708.078125 183.925781 L 721.664062 173.144531 L 737.566406 160.429688 L 753.476562 147.71875 L 759.640625 142.96875 L 765.808594 138.21875 L 773.523438 132.058594 L 781.230469 125.902344 L 787.351562 120.953125 Z M 793.472656 116.007812 " fill-opacity="1" fill-rule="evenodd"/><path fill="#ee8d1c" d="M 563.296875 124.425781 L 563.960938 124.839844 L 564.628906 125.25 L 560.882812 139.03125 L 557.132812 152.808594 L 555.667969 157.847656 L 554.207031 162.882812 L 552.3125 169.859375 L 550.425781 176.832031 L 548.5625 177.738281 L 546.699219 178.648438 L 543.21875 179.59375 L 539.742188 180.542969 L 533.5625 182.542969 L 527.378906 184.828125 L 521.199219 187.113281 L 515.402344 189.453125 L 509.609375 191.792969 L 503.425781 194.664062 L 497.246094 197.53125 L 495.886719 198.253906 L 494.527344 198.980469 L 493.863281 197.207031 L 493.195312 195.429688 L 491.9375 183.011719 L 490.675781 170.59375 L 490.691406 167.902344 L 490.707031 165.207031 L 499.769531 159.28125 L 508.835938 153.355469 L 517.332031 148.3125 L 525.835938 143.265625 L 535.890625 137.964844 L 545.945312 132.660156 Z M 563.296875 124.425781 " fill-opacity="1" fill-rule="evenodd"/><path fill="#ee8d1c" d="M 474.933594 177.335938 L 475.617188 178.019531 L 476.296875 178.703125 L 477.777344 192.613281 L 479.253906 206.519531 L 478.941406 207.363281 L 478.636719 208.207031 L 475.378906 210.027344 L 472.125 211.851562 L 462.0625 218.558594 L 451.996094 225.265625 L 444.253906 231.277344 L 436.507812 237.289062 L 427.996094 244.816406 L 419.480469 252.347656 L 413.671875 257.820312 L 407.863281 263.289062 L 389.667969 263.3125 L 389.667969 261.558594 L 401.238281 247.199219 L 407.539062 239.996094 L 413.839844 232.789062 L 425.175781 221.28125 L 436.507812 209.769531 L 446.191406 201.175781 L 455.867188 192.582031 L 462.0625 187.558594 L 468.253906 182.539062 Z M 474.933594 177.335938 " fill-opacity="1" fill-rule="evenodd"/><path fill="#ee8d1c" d="M 863.027344 180.339844 L 864.261719 180.339844 L 867.808594 187.507812 L 871.355469 194.671875 L 873.820312 200.867188 L 876.285156 207.066406 L 877.386719 210.9375 L 878.480469 214.8125 L 879.96875 219.84375 L 881.46875 224.882812 L 882.972656 233.015625 L 884.480469 241.148438 L 885.382812 248.894531 L 886.289062 256.640625 L 886.03125 264.738281 L 885.777344 272.839844 L 873.417969 275.804688 L 861.054688 278.769531 L 855.253906 280.253906 L 849.464844 281.734375 L 835.550781 284.984375 L 832.851562 285.6875 L 830.144531 286.386719 L 823.574219 287.925781 L 817.007812 289.46875 L 812.757812 290.382812 L 808.515625 291.300781 L 806.578125 291.90625 L 804.648438 292.511719 L 800.78125 293.40625 L 796.921875 294.304688 L 793.832031 295.082031 L 790.742188 295.863281 L 788.421875 296.515625 L 786.105469 297.167969 L 781.078125 298.351562 L 776.058594 299.53125 L 770.648438 300.769531 L 765.242188 302.011719 L 762.539062 302.714844 L 759.832031 303.421875 L 753.441406 305.011719 L 747.042969 306.601562 L 743.226562 306.601562 L 743.226562 289.4375 L 742.394531 281.945312 L 741.566406 274.457031 L 740.046875 267.097656 L 738.519531 259.738281 L 737.25 255.660156 L 735.980469 251.585938 L 736.703125 250.925781 L 737.421875 250.261719 L 741.675781 247.929688 L 745.925781 245.59375 L 752.496094 241.921875 L 759.0625 238.25 L 763.3125 235.914062 L 767.558594 233.574219 L 771.039062 231.617188 L 774.515625 229.65625 L 779.535156 226.820312 L 784.5625 223.980469 L 787.265625 222.433594 L 789.964844 220.890625 L 798.46875 216.3125 L 806.96875 211.734375 L 808.964844 210.5625 L 810.96875 209.390625 L 821.324219 203.652344 L 831.691406 197.914062 L 847.144531 189.101562 L 852.164062 186.390625 L 857.191406 183.679688 L 860.113281 182.011719 Z M 863.027344 180.339844 " fill-opacity="1" fill-rule="evenodd"/><path fill="#ee8d1c" d="M 886.289062 286.761719 L 886.289062 291.984375 L 885.59375 296.1875 L 884.890625 300.390625 L 882.984375 314.320312 L 881.839844 319.734375 L 880.699219 325.152344 L 879.964844 328.246094 L 879.238281 331.339844 L 878.5625 334.4375 L 877.890625 337.53125 L 877.144531 340.238281 L 876.394531 342.949219 L 874.28125 349.527344 L 872.179688 356.101562 L 871.59375 357.648438 L 871.019531 359.195312 L 870.042969 362.289062 L 869.070312 365.386719 L 865.96875 372.738281 L 727.5625 372.738281 L 727.5625 370.542969 L 729.113281 366.933594 L 730.660156 363.320312 L 732.570312 357.777344 L 734.476562 352.234375 L 736.785156 342.949219 L 739.089844 333.664062 L 740.050781 328.390625 L 741.011719 323.121094 L 742.59375 322.273438 L 744.175781 321.429688 L 746.515625 320.835938 L 748.851562 320.246094 L 753.890625 318.992188 L 758.925781 317.738281 L 761.628906 317.046875 L 764.339844 316.351562 L 768.214844 315.480469 L 772.085938 314.609375 L 774.796875 313.921875 L 777.503906 313.234375 L 779.4375 312.878906 L 781.375 312.527344 L 786.023438 311.34375 L 790.667969 310.160156 L 803.832031 306.988281 L 816.992188 303.816406 L 819.703125 303.121094 L 822.410156 302.425781 L 826.28125 301.554688 L 830.152344 300.679688 L 833.054688 299.957031 L 835.960938 299.230469 L 839.25 298.394531 L 842.542969 297.554688 L 845.253906 296.878906 L 847.960938 296.199219 L 852.992188 294.929688 L 858.027344 293.664062 L 861.128906 293.007812 L 864.222656 292.351562 L 870.800781 290.71875 L 873.707031 290.023438 L 876.609375 289.328125 L 880.734375 288.484375 L 884.859375 287.644531 Z M 886.289062 286.761719 " fill-opacity="1" fill-rule="evenodd"/><g clip-path="url(#f6fb6b4e0e)"><path fill="#ee8d1c" d="M 659.4375 502.605469 L 659.835938 502.988281 L 660.226562 503.375 L 658.144531 511.582031 L 656.058594 519.792969 L 655.355469 521.121094 L 654.644531 522.445312 L 235.152344 522.445312 L 235.152344 520.929688 L 238.050781 520.921875 L 240.945312 520.910156 L 257.945312 520.15625 L 274.945312 519.40625 L 310.097656 517.902344 L 345.253906 516.398438 L 398.566406 514.148438 L 412.472656 513.328125 L 431.015625 512.574219 L 449.5625 511.816406 L 500.558594 509.570312 L 551.550781 507.324219 L 569.710938 506.542969 L 587.867188 505.761719 L 603.316406 505.046875 L 618.769531 504.332031 L 639.105469 503.46875 Z M 659.4375 502.605469 " fill-opacity="1" fill-rule="evenodd"/></g><path fill="#ee8d1c" d="M 691.683594 250.6875 C 707.011719 250.6875 717.527344 255.71875 723.234375 265.785156 C 728.933594 275.855469 729.007812 289.058594 723.449219 305.398438 C 717.890625 321.738281 709.003906 334.941406 696.78125 345.011719 C 684.558594 355.078125 670.453125 360.109375 654.464844 360.109375 C 638.617188 360.109375 628.042969 354.875 622.730469 344.410156 C 617.421875 333.941406 617.410156 320.9375 622.695312 305.398438 C 628.25 289.058594 637.46875 275.855469 650.347656 265.785156 C 663.230469 255.71875 677.003906 250.6875 691.683594 250.6875 Z M 684.40625 273.992188 C 675.796875 273.992188 668.449219 277.074219 662.371094 283.238281 C 656.300781 289.40625 651.796875 296.789062 648.867188 305.398438 C 646.4375 312.546875 646.011719 319.585938 647.597656 326.515625 C 649.1875 333.449219 654.320312 336.914062 663.007812 336.914062 C 671.113281 336.914062 677.992188 333.8125 683.644531 327.613281 C 689.289062 321.410156 693.582031 314.007812 696.507812 305.398438 C 699.484375 296.644531 700.238281 289.222656 698.769531 283.128906 C 697.304688 277.039062 692.511719 273.992188 684.40625 273.992188 Z M 684.40625 273.992188 " fill-opacity="1" fill-rule="evenodd"/><path fill="#ee8d1c" d="M 527.71875 251.289062 L 593.050781 251.289062 C 604.808594 251.507812 612.476562 254.328125 616.046875 259.757812 C 619.617188 265.1875 619.636719 272.894531 616.113281 282.878906 C 612.589844 292.863281 604.808594 299.96875 592.777344 304.195312 C 601.507812 308.859375 604.402344 316.839844 601.449219 328.136719 L 599.1875 334.804688 C 593.554688 349.304688 582.101562 357.941406 564.828125 360.710938 L 490.675781 360.710938 L 510.796875 336.664062 L 559.578125 336.664062 C 566.039062 336.664062 570.347656 333.417969 572.507812 326.933594 C 574.667969 320.449219 572.554688 317.203125 566.164062 317.203125 L 545.804688 317.203125 L 538.839844 293.703125 L 574.664062 293.703125 C 581.996094 293.703125 586.675781 290.660156 588.695312 284.574219 C 590.722656 278.488281 588.066406 275.445312 580.734375 275.445312 L 519.539062 275.445312 Z M 527.71875 251.289062 " fill-opacity="1" fill-rule="evenodd"/><path fill="#ee8d1c" d="M 445.640625 251.289062 L 476.167969 251.289062 L 487.671875 360.710938 L 458.777344 360.710938 L 456.613281 340.996094 L 427.285156 340.996094 L 420.171875 322.703125 L 390.195312 360.710938 L 360.207031 360.710938 Z M 450.222656 284.148438 L 424.679688 316.789062 L 454.007812 316.789062 Z M 450.222656 284.148438 " fill-opacity="1" fill-rule="evenodd"/><path fill="#ee8d1c" d="M 547.414062 384.160156 L 575.449219 384.160156 L 518.378906 438.078125 L 538.695312 491.78125 L 510.660156 491.78125 L 497.835938 457.558594 L 461.597656 491.78125 L 433.558594 491.78125 L 503.578125 425.808594 L 485.464844 425.808594 L 470.167969 384.269531 L 498.097656 384.269531 L 511.03125 418.492188 Z M 547.414062 384.160156 " fill-opacity="1" fill-rule="evenodd"/><path fill="#ee8d1c" d="M 577.84375 384.160156 L 642.3125 384.160156 C 660.195312 387.464844 666.273438 397.734375 660.542969 414.96875 L 658.34375 421.433594 C 652.230469 438.957031 639.175781 449.371094 619.191406 452.675781 L 592.296875 452.675781 L 586.644531 436.949219 L 567.960938 491.78125 L 541.179688 491.78125 Z M 596.914062 407.429688 L 588.769531 431.347656 L 621.269531 431.347656 C 626.34375 429.980469 630.078125 425.671875 632.476562 418.417969 C 634.484375 412.527344 632.785156 408.867188 627.367188 407.429688 Z M 596.914062 407.429688 " fill-opacity="1" fill-rule="evenodd"/><path fill="#ee8d1c" d="M 892.664062 384.160156 L 960.84375 384.160156 L 942.1875 407.320312 L 891.050781 407.320312 C 885.496094 408.113281 881.769531 411.414062 879.875 417.234375 C 878.101562 422.476562 880.03125 425.421875 885.675781 426.066406 L 918.054688 426.066406 C 935.847656 429.226562 942.011719 439.101562 936.546875 455.691406 L 935.523438 458.707031 C 928.707031 478.460938 915.539062 489.484375 896.042969 491.78125 L 827.96875 491.78125 L 846.453125 468.511719 L 897.261719 468.511719 C 903.082031 467.578125 907.015625 464.09375 909.050781 458.0625 C 910.824219 452.820312 908.949219 449.695312 903.429688 448.691406 L 871.054688 448.691406 C 853.257812 445.53125 847.082031 435.691406 852.523438 419.171875 L 853.546875 416.15625 C 860.101562 397.195312 873.140625 386.53125 892.664062 384.160156 Z M 892.664062 384.160156 " fill-opacity="1" fill-rule="evenodd"/><g clip-path="url(#1245ebf9cc)"><path fill="#ee8d1c" d="M 995.167969 384.160156 L 1063.652344 384.160156 L 1044.90625 407.320312 L 993.542969 407.320312 C 987.964844 408.113281 984.226562 411.414062 982.320312 417.234375 C 980.535156 422.476562 982.480469 425.421875 988.144531 426.066406 L 1020.664062 426.066406 C 1038.546875 429.226562 1044.738281 439.101562 1039.242188 455.691406 L 1038.222656 458.707031 C 1031.367188 478.460938 1018.148438 489.484375 998.558594 491.78125 L 930.179688 491.78125 L 948.746094 468.511719 L 999.785156 468.511719 C 1005.636719 467.578125 1009.578125 464.09375 1011.628906 458.0625 C 1013.410156 452.820312 1011.527344 449.695312 1005.984375 448.691406 L 973.460938 448.691406 C 955.582031 445.53125 949.378906 435.691406 954.847656 419.171875 L 955.871094 416.15625 C 962.453125 397.195312 975.554688 386.53125 995.167969 384.160156 Z M 995.167969 384.160156 " fill-opacity="1" fill-rule="evenodd"/></g><path fill="#ee8d1c" d="M 381.398438 384.160156 L 468.429688 384.160156 L 448.652344 407.609375 L 373.4375 407.609375 Z M 381.398438 384.160156 " fill-opacity="1" fill-rule="evenodd"/><path fill="#ee8d1c" d="M 680.492188 384.160156 L 742.046875 384.160156 C 751.945312 384.589844 759.003906 387.953125 763.21875 394.242188 C 767.429688 400.535156 767.761719 408.925781 764.195312 419.421875 C 757.816406 437.179688 745.90625 448.179688 728.472656 452.421875 L 742.238281 491.78125 L 709.527344 491.78125 L 689.476562 436.675781 L 670.789062 491.78125 L 643.992188 491.78125 Z M 699.417969 407.667969 L 691.554688 430.851562 L 723.949219 430.851562 C 729.9375 429.488281 734.050781 425.714844 736.292969 419.53125 C 738.488281 412.628906 736.707031 408.675781 730.953125 407.667969 Z M 699.417969 407.667969 " fill-opacity="1" fill-rule="evenodd"/><path fill="#ee8d1c" d="M 779.414062 384.160156 L 866.449219 384.160156 L 846.667969 407.609375 L 771.453125 407.609375 Z M 779.414062 384.160156 " fill-opacity="1" fill-rule="evenodd"/><path fill="#ee8d1c" d="M 367.417969 425.644531 L 442.578125 425.644531 L 434.769531 448.492188 L 359.609375 448.492188 Z M 367.417969 425.644531 " fill-opacity="1" fill-rule="evenodd"/><path fill="#ee8d1c" d="M 765.433594 425.644531 L 840.597656 425.644531 L 832.785156 448.492188 L 757.625 448.492188 Z M 765.433594 425.644531 " fill-opacity="1" fill-rule="evenodd"/><path fill="#ee8d1c" d="M 353.101562 468.332031 L 434.761719 468.332031 L 426.835938 491.78125 L 345.179688 491.78125 Z M 353.101562 468.332031 " fill-opacity="1" fill-rule="evenodd"/><path fill="#ee8d1c" d="M 750.574219 468.332031 L 832.78125 468.332031 L 824.800781 491.78125 L 742.59375 491.78125 Z M 750.574219 468.332031 " fill-opacity="1" fill-rule="evenodd"/><g fill="#ee8d1c" fill-opacity="1"><g transform="translate(868.777285, 90.32907)"><g><path d="M 2.890625 2.4375 L 27.5625 -26.75 L 40.046875 -16.203125 C 42.078125 -14.484375 43.675781 -12.554688 44.84375 -10.421875 C 46.007812 -8.285156 46.503906 -6.046875 46.328125 -3.703125 C 46.160156 -1.367188 45.070312 0.976562 43.0625 3.34375 C 41.03125 5.757812 38.859375 7.269531 36.546875 7.875 C 34.234375 8.476562 31.921875 8.382812 29.609375 7.59375 C 27.304688 6.800781 25.140625 5.546875 23.109375 3.828125 L 19.140625 0.484375 L 11.40625 9.640625 Z M 24.796875 -6.203125 L 27.96875 -3.53125 C 28.988281 -2.664062 30.066406 -2.257812 31.203125 -2.3125 C 32.335938 -2.363281 33.367188 -2.941406 34.296875 -4.046875 C 35.179688 -5.085938 35.503906 -6.148438 35.265625 -7.234375 C 35.023438 -8.316406 34.429688 -9.257812 33.484375 -10.0625 L 30.3125 -12.734375 Z M 24.796875 -6.203125 "/></g></g></g><g fill="#ee8d1c" fill-opacity="1"><g transform="translate(894.674812, 111.828055)"><g><path d="M 2.4375 2.890625 L 31.609375 -21.796875 L 42.359375 -9.109375 C 44.179688 -6.953125 45.535156 -4.832031 46.421875 -2.75 C 47.304688 -0.664062 47.535156 1.359375 47.109375 3.328125 C 46.691406 5.296875 45.429688 7.171875 43.328125 8.953125 C 41.484375 10.503906 39.484375 11.300781 37.328125 11.34375 C 35.179688 11.394531 32.992188 10.765625 30.765625 9.453125 C 31.765625 11.078125 32.300781 12.515625 32.375 13.765625 C 32.457031 15.015625 32.195312 16.25 31.59375 17.46875 C 31 18.695312 30.195312 20.070312 29.1875 21.59375 L 24.453125 28.890625 L 17.09375 20.1875 L 20.609375 15.25 C 21.703125 13.675781 22.488281 12.378906 22.96875 11.359375 C 23.445312 10.347656 23.582031 9.414062 23.375 8.5625 C 23.175781 7.707031 22.613281 6.734375 21.6875 5.640625 L 19.515625 3.0625 L 9.65625 11.40625 Z M 26.203125 -2.609375 L 28.59375 0.21875 C 29.257812 1 29.9375 1.539062 30.625 1.84375 C 31.320312 2.15625 32.007812 2.242188 32.6875 2.109375 C 33.375 1.984375 34.035156 1.648438 34.671875 1.109375 C 35.691406 0.242188 36.164062 -0.648438 36.09375 -1.578125 C 36.03125 -2.515625 35.707031 -3.328125 35.125 -4.015625 L 32.09375 -7.59375 Z M 26.203125 -2.609375 "/></g></g></g><g fill="#ee8d1c" fill-opacity="1"><g transform="translate(917.472609, 138.684587)"><g><path d="M 1.953125 3.234375 L 34.703125 -16.46875 L 48.65625 6.734375 L 40.765625 11.484375 L 32.5625 -2.15625 L 27.984375 0.59375 L 35.234375 12.65625 L 27.640625 17.21875 L 20.390625 5.15625 L 15.59375 8.046875 L 23.796875 21.6875 L 15.90625 26.4375 Z M 1.953125 3.234375 "/></g></g></g><g fill="#ee8d1c" fill-opacity="1"><g transform="translate(934.232413, 164.63347)"><g><path d="M 1.3125 3.546875 L 37.140625 -9.734375 L 41.71875 2.578125 L 28.53125 18.078125 L 27.171875 14.421875 L 47.171875 17.3125 L 51.59375 29.234375 L 15.765625 42.515625 L 11.96875 32.265625 L 43.796875 20.453125 L 45.5 25.078125 L 20.8125 21.984375 L 18.515625 15.78125 L 35.15625 -2.8125 L 36.859375 1.765625 L 5.03125 13.578125 Z M 1.3125 3.546875 "/></g></g></g><g fill="#ee8d1c" fill-opacity="1"><g transform="translate(949.511797, 208.6155)"><g><path d="M 0.765625 3.703125 L 38.203125 -3.984375 L 40.4375 6.9375 L 3 14.625 Z M 0.765625 3.703125 "/></g></g></g><g fill="#ee8d1c" fill-opacity="1"><g transform="translate(953.772838, 224.621187)"><g><path d="M 0.828125 21 C 0.554688 16.9375 0.914062 13.570312 1.90625 10.90625 C 2.894531 8.25 4.582031 6.21875 6.96875 4.8125 C 9.363281 3.414062 12.523438 2.585938 16.453125 2.328125 L 38.359375 0.890625 L 39.125 12.359375 L 17.53125 13.78125 C 14.882812 13.957031 12.953125 14.582031 11.734375 15.65625 C 10.523438 16.738281 9.992188 18.351562 10.140625 20.5 C 10.285156 22.632812 11.023438 24.128906 12.359375 24.984375 C 13.703125 25.847656 15.695312 26.191406 18.34375 26.015625 L 39.9375 24.59375 L 40.6875 36.09375 L 18.78125 37.53125 C 14.851562 37.789062 11.609375 37.378906 9.046875 36.296875 C 6.492188 35.222656 4.550781 33.414062 3.21875 30.875 C 1.882812 28.34375 1.085938 25.050781 0.828125 21 Z M 0.828125 21 "/></g></g></g><g fill="#ee8d1c" fill-opacity="1"><g transform="translate(957.022766, 263.387214)"><g><path d="M -0.53125 3.75 L 37.3125 9.046875 L 35.5 22.0625 L 16.546875 29.4375 L 17.078125 25.59375 L 33.3125 37.609375 L 31.5625 50.203125 L -6.28125 44.90625 L -4.765625 34.078125 L 28.859375 38.78125 L 28.171875 43.671875 L 7.890625 29.21875 L 8.8125 22.671875 L 32.296875 14.203125 L 31.609375 19.046875 L -2.015625 14.34375 Z M -0.53125 3.75 "/></g></g></g></svg>