<svg width="64" height="64" viewBox="0 0 64 64" fill="none" xmlns="http://www.w3.org/2000/svg">
<path d="M41.228 8.41992C40.9324 8.18996 40.5781 8.04763 40.2056 8.00913C39.833 7.97063 39.4571 8.03752 39.1207 8.20218C38.7843 8.36683 38.5009 8.62264 38.3028 8.94047C38.1047 9.25831 37.9997 9.62539 38 9.99992V17.9719L37.46 17.9999C35.3464 18.144 33.2654 18.5981 31.284 19.3479C27.9503 20.6097 25.044 22.7933 22.904 25.6439C20.412 28.9479 18.58 33.5319 18.008 39.8199C17.9701 40.2297 18.0596 40.6412 18.2642 40.9983C18.4688 41.3554 18.7786 41.6407 19.1513 41.8152C19.524 41.9898 19.9415 42.0451 20.3468 41.9736C20.7521 41.9022 21.1255 41.7074 21.416 41.4159C26.168 36.6559 30.892 34.3119 34.384 33.1479C35.824 32.6679 37.056 32.3879 38 32.2279V39.9999C37.9999 40.3854 38.1112 40.7628 38.3206 41.0865C38.5299 41.4102 38.8284 41.6666 39.18 41.8246C39.5316 41.9827 39.9214 42.0358 40.3025 41.9774C40.6836 41.9191 41.0397 41.7519 41.328 41.4959L59.328 25.4959C59.5478 25.301 59.722 25.06 59.8382 24.7901C59.9544 24.5203 60.0096 24.2281 60.0001 23.9344C59.9906 23.6408 59.9164 23.3528 59.783 23.0911C59.6495 22.8293 59.46 22.6002 59.228 22.4199L41.228 8.41992ZM39.772 21.9879H39.784C40.0632 22.0183 40.3457 21.9894 40.613 21.9034C40.8803 21.8173 41.1265 21.6759 41.3356 21.4883C41.5446 21.3008 41.7118 21.0713 41.8263 20.8149C41.9408 20.5584 42 20.2808 42 19.9999V14.0879L54.876 24.1039L42 35.5439V29.9999C42 29.4695 41.7893 28.9608 41.4142 28.5857C41.0391 28.2106 40.5304 27.9999 40 27.9999H39.82L39.42 28.0239C38.945 28.0577 38.4714 28.1084 38 28.1759C36.8 28.3479 35.12 28.6839 33.12 29.3519C29.4491 30.5982 26.0065 32.4358 22.928 34.7919C23.704 31.9279 24.832 29.7359 26.1 28.0519C27.7882 25.8006 30.0832 24.0773 32.716 23.0839C34.8125 22.2949 37.0404 21.9135 39.28 21.9599C39.4613 21.9653 39.5947 21.9719 39.68 21.9799L39.772 21.9879ZM18 11.9999C15.3478 11.9999 12.8043 13.0535 10.9289 14.9289C9.05357 16.8042 8 19.3478 8 21.9999V45.9999C8 48.6521 9.05357 51.1956 10.9289 53.071C12.8043 54.9464 15.3478 55.9999 18 55.9999H42C44.6522 55.9999 47.1957 54.9464 49.0711 53.071C50.9464 51.1956 52 48.6521 52 45.9999V41.9999C52 41.4695 51.7893 40.9608 51.4142 40.5857C51.0391 40.2106 50.5304 39.9999 50 39.9999C49.4696 39.9999 48.9609 40.2106 48.5858 40.5857C48.2107 40.9608 48 41.4695 48 41.9999V45.9999C48 47.5912 47.3679 49.1173 46.2426 50.2426C45.1174 51.3678 43.5913 51.9999 42 51.9999H18C16.4087 51.9999 14.8826 51.3678 13.7574 50.2426C12.6321 49.1173 12 47.5912 12 45.9999V21.9999C12 20.4086 12.6321 18.8825 13.7574 17.7573C14.8826 16.6321 16.4087 15.9999 18 15.9999H26C26.5304 15.9999 27.0391 15.7892 27.4142 15.4141C27.7893 15.0391 28 14.5304 28 13.9999C28 13.4695 27.7893 12.9608 27.4142 12.5857C27.0391 12.2106 26.5304 11.9999 26 11.9999H18Z" fill="#18344C"/>
</svg>
