<svg width="64" height="64" viewBox="0 0 64 64" fill="none" xmlns="http://www.w3.org/2000/svg">
<path d="M31.9999 5.3335C17.2959 5.3335 5.33325 17.2962 5.33325 32.0002V43.0482C5.33325 45.7788 7.72525 48.0002 10.6666 48.0002H13.3333C14.0405 48.0002 14.7188 47.7192 15.2189 47.2191C15.719 46.719 15.9999 46.0407 15.9999 45.3335V31.6188C15.9999 30.9116 15.719 30.2333 15.2189 29.7332C14.7188 29.2331 14.0405 28.9522 13.3333 28.9522H10.9119C12.3946 18.6322 21.2746 10.6668 31.9999 10.6668C42.7252 10.6668 51.6053 18.6322 53.0879 28.9522H50.6666C49.9593 28.9522 49.2811 29.2331 48.781 29.7332C48.2809 30.2333 47.9999 30.9116 47.9999 31.6188V48.0002C47.9999 50.9415 45.6079 53.3335 42.6666 53.3335H37.3333V50.6668H26.6666V58.6668H42.6666C48.5492 58.6668 53.3332 53.8828 53.3332 48.0002C56.2746 48.0002 58.6666 45.7788 58.6666 43.0482V32.0002C58.6666 17.2962 46.7039 5.3335 31.9999 5.3335Z" fill="#18344C"/>
</svg>
