<svg width="64" height="64" viewBox="0 0 64 64" fill="none" xmlns="http://www.w3.org/2000/svg">
<path fill-rule="evenodd" clip-rule="evenodd" d="M32 60C39.4261 60 46.548 57.05 51.799 51.799C57.05 46.548 60 39.4261 60 32C60 24.5739 57.05 17.452 51.799 12.201C46.548 6.94999 39.4261 4 32 4C24.5739 4 17.452 6.94999 12.201 12.201C6.94999 17.452 4 24.5739 4 32C4 39.4261 6.94999 46.548 12.201 51.799C17.452 57.05 24.5739 60 32 60ZM27.92 43.48H25.08L16 34.4L18.84 31.56L26.52 39.24L43.32 22.4L46.16 25.24L27.92 43.48Z" fill="#EE8D1C"/>
</svg>
